<svg version="1.1" width="310" height="310" viewBox="0 0 310 310"
   xmlns:xlink="http://www.w3.org/1999/xlink" xmlns="http://www.w3.org/2000/svg" xmlns:svg="http://www.w3.org/2000/svg">
   <text x="193" y="13" fill="#000" font-family="Helvetica" font-size="12px" text-anchor="middle">Push</text>
   <g id="arrow" transform="translate(6,-5)">
      <path d="M 95.37,30 Q 119,30 129,60" fill="none" stroke="#000" stroke-miterlimit="10"/>
      <path d="m 90.12,30 7,-3.5 -1.75,3.5 1.75,3.5 z" fill="#000" stroke="#000" stroke-miterlimit="10"/>
   </g>
   <text x="117" y="13" fill="#000" font-family="Helvetica" font-size="12px" text-anchor="middle">Pop</text>
   <text x="259" y="205" fill="#000" font-family="Helvetica" font-size="12px" text-anchor="middle"
      id="text9">Stack</text>
   <rect x="216" y="182" width="86" height="41" rx="6" ry="6" fill="none" stroke="#000"/>
   <use x="0" y="0" href="#arrow" transform="rotate(-73.891363,155.25758,-13.315661)"/>
   <rect fill="#d5e8d4" stroke="#000"
      id="rectPop" width="80" height="40" x="7" y="4" rx="6" ry="6" />
   <use x="0" y="0" href="#rectPop" transform="translate(215)" />
   <rect
      fill="none" stroke="#000" style="stroke-dasharray:8, 8;stroke-dashoffset:0;" width="80" height="40" x="115" y="62" rx="6" ry="6" />
   <use x="0" y="0" href="#rectPop" id="rectStact" transform="translate(108,107)" />
   <use x="0" y="0" href="#rectStact" transform="translate(0,49)" />
   <use x="0" y="0" href="#rectStact" transform="translate(0,98)" />
   <use x="0" y="0" href="#rectStact" transform="translate(0,147)" />
</svg>